<?xml version="1.0" encoding="UTF-8"?>
<svg id="Layer_1" xmlns="http://www.w3.org/2000/svg" version="1.1" viewBox="0 0 369.9 57.1">
  <!-- Generator: Adobe Illustrator 29.2.1, SVG Export Plug-In . SVG Version: 2.1.0 Build 116)  -->
  <defs>
    <style>
      .st0 {
        fill: #fff;
      }
    </style>
  </defs>
  <g id="loopmeesters">
    <path class="st0" d="M7.5,45c-.2.3-.5.4-.8.4H1.2c-.3,0-.6-.1-.8-.4C.1,44.7,0,44.4,0,44.1V1.2C0,.9.1.6.4.4.6.1.9,0,1.2,0h5.5C7.1,0,7.3.1,7.5.4c.2.2.3.5.3.8v42.9c0,.3-.1.6-.3.9h0Z"/>
    <path class="st0" d="M42.4,36.9c-.6,1.8-1.5,3.4-2.7,4.7s-2.7,2.3-4.4,3.1c-1.8.8-3.8,1.1-6.2,1.1s-4.4-.4-6.2-1.1-3.2-1.8-4.4-3.1-2.1-2.9-2.7-4.7c-.6-1.8-.9-3.8-.9-5.9v-4.8c0-2.1.3-4.1.9-5.9.6-1.8,1.5-3.4,2.7-4.7s2.7-2.3,4.4-3.1c1.8-.8,3.8-1.1,6.2-1.1s4.4.4,6.2,1.1c1.8.8,3.2,1.8,4.4,3.1,1.2,1.3,2.1,2.9,2.7,4.7s.9,3.8.9,5.9v4.8c0,2.1-.3,4.1-.9,5.9ZM35.5,26.1c0-2.5-.5-4.4-1.6-5.9s-2.7-2.2-4.8-2.2-3.7.7-4.8,2.2c-1.1,1.5-1.6,3.4-1.6,5.9v4.8c0,2.5.5,4.4,1.6,5.9s2.7,2.2,4.8,2.2,3.7-.7,4.8-2.2c1.1-1.5,1.6-3.4,1.6-5.9v-4.8Z"/>
    <path class="st0" d="M76.6,36.9c-.6,1.8-1.5,3.4-2.7,4.7s-2.7,2.3-4.4,3.1c-1.8.8-3.8,1.1-6.2,1.1s-4.4-.4-6.2-1.1c-1.8-.8-3.2-1.8-4.4-3.1s-2.1-2.9-2.7-4.7c-.6-1.8-.9-3.8-.9-5.9v-4.8c0-2.1.3-4.1.9-5.9.6-1.8,1.5-3.4,2.7-4.7s2.7-2.3,4.4-3.1c1.8-.8,3.8-1.1,6.2-1.1s4.4.4,6.2,1.1c1.8.8,3.2,1.8,4.4,3.1,1.2,1.3,2.1,2.9,2.7,4.7s.9,3.8.9,5.9v4.8c0,2.1-.3,4.1-.9,5.9ZM69.7,26.1c0-2.5-.5-4.4-1.6-5.9s-2.7-2.2-4.8-2.2-3.7.7-4.8,2.2c-1.1,1.5-1.6,3.4-1.6,5.9v4.8c0,2.5.5,4.4,1.6,5.9s2.7,2.2,4.8,2.2,3.7-.7,4.8-2.2c1.1-1.5,1.6-3.4,1.6-5.9v-4.8Z"/>
    <path class="st0" d="M108.6,41.8c-2.3,2.6-5.9,4-10.7,4s-1.6,0-2.6,0-2.1-.2-3.2-.3v10.5c0,.3-.1.6-.4.8s-.5.4-.8.4h-5.5c-.3,0-.6-.1-.8-.4-.2-.2-.4-.5-.4-.8V14.5c0-.4,0-.8.3-1,.2-.2.6-.4,1.3-.6,1.9-.5,3.8-.9,6-1.1,2.1-.3,4.1-.4,6-.4,4.8,0,8.4,1.3,10.7,4,2.3,2.6,3.5,6.3,3.5,11v4.6c0,4.7-1.2,8.3-3.5,11h0ZM104.2,26.3c0-1.2,0-2.4-.3-3.4-.2-1-.5-1.9-1-2.7-.5-.8-1.1-1.3-2-1.8-.8-.4-1.9-.6-3.2-.6s-2.2,0-3.2.1c-1.1,0-1.9.2-2.5.3v20.7c.8.1,1.8.2,2.9.3s2.1.1,2.8.1c1.3,0,2.3-.2,3.2-.7.8-.4,1.5-1,2-1.8s.8-1.6,1-2.7.3-2.2.3-3.4v-4.6h0Z"/>
    <path class="st0" d="M161.1,45c-.2.3-.5.4-.8.4h-5.5c-.3,0-.6-.1-.8-.4-.2-.3-.4-.5-.4-.9v-20.2c0-1.1,0-2.1-.2-2.8s-.4-1.3-.7-1.8c-.3-.4-.8-.7-1.3-.9-.6-.2-1.2-.3-2.1-.3s-1.4.1-2.4.3-2.1.6-3.2,1.2c0,.7.1,1.4.2,2.1s0,1.5,0,2.2v20.2c0,.3-.1.6-.4.9-.2.3-.5.4-.8.4h-5.5c-.3,0-.6-.1-.8-.4-.2-.3-.4-.5-.4-.9v-20.2c0-1.1,0-2.1-.2-2.8s-.3-1.3-.6-1.8c-.3-.4-.7-.7-1.2-.9s-1.2-.3-2.1-.3c-1.2,0-3,.6-5.5,2v24c0,.3-.1.6-.4.9-.2.3-.5.4-.8.4h-5.5c-.3,0-.6-.1-.8-.4-.2-.3-.4-.5-.4-.9V12.9c0-.3.1-.6.4-.8.2-.2.5-.4.8-.4h5.2c.3,0,.6.1.8.4.2.2.4.5.4.8v1.3c1.3-.8,2.6-1.5,3.9-2s2.9-.8,4.6-.8,3.1.2,4.3.7c1.1.5,2,1.1,2.7,2,1.5-.8,3-1.5,4.5-2,1.5-.5,3.3-.7,5.3-.7s3.7.3,5,1c1.3.7,2.3,1.6,3,2.7.7,1.1,1.2,2.5,1.5,4s.4,3.1.4,4.9v20.2c0,.3-.1.6-.4.9h0Z"/>
    <path class="st0" d="M195.4,31.3h-19.5v.2c0,.9.1,1.8.3,2.7.2.9.6,1.7,1.1,2.4.5.7,1.3,1.3,2.2,1.8s2.1.7,3.5.7c2.2,0,4.2,0,6.2-.2s3.5-.3,4.8-.4h.2c.3,0,.6,0,.8.2.2.1.3.4.3.7v3.9c0,.5,0,.8-.2,1.1-.1.2-.5.4-1,.5-.9.2-1.9.3-2.7.5-.8.1-1.7.2-2.5.3s-1.8.1-2.8.2c-1,0-2.2,0-3.5,0s-3.1-.2-4.7-.7c-1.7-.5-3.2-1.2-4.7-2.4s-2.6-2.7-3.6-4.6-1.4-4.4-1.4-7.3v-4.4c0-2.3.3-4.5.9-6.3.6-1.9,1.6-3.5,2.8-4.8,1.2-1.3,2.7-2.3,4.5-3,1.8-.7,3.8-1,6.1-1s4.3.4,6.1,1.1c1.8.7,3.2,1.8,4.4,3.1s2.1,3,2.7,4.8c.6,1.9.9,3.9.9,6.1v3.3c0,1-.4,1.5-1.2,1.5h0ZM188.8,25.4c0-2.3-.6-4.1-1.7-5.4s-2.7-1.9-4.6-1.9-3.4.6-4.6,1.9c-1.2,1.2-1.8,3.1-1.8,5.4v.2h12.8v-.2h0Z"/>
    <path class="st0" d="M229.6,31.3h-19.5v.2c0,.9.1,1.8.3,2.7.2.9.6,1.7,1.1,2.4.5.7,1.3,1.3,2.2,1.8s2.1.7,3.5.7c2.2,0,4.2,0,6.2-.2s3.5-.3,4.8-.4h.2c.3,0,.6,0,.8.2.2.1.3.4.3.7v3.9c0,.5,0,.8-.2,1.1-.1.2-.5.4-1,.5-.9.2-1.9.3-2.7.5-.8.1-1.7.2-2.5.3s-1.8.1-2.8.2c-1,0-2.2,0-3.5,0s-3.1-.2-4.7-.7c-1.7-.5-3.2-1.2-4.7-2.4s-2.6-2.7-3.6-4.6-1.4-4.4-1.4-7.3v-4.4c0-2.3.3-4.5.9-6.3.6-1.9,1.6-3.5,2.8-4.8,1.2-1.3,2.7-2.3,4.5-3,1.8-.7,3.8-1,6.1-1s4.3.4,6.1,1.1c1.8.7,3.2,1.8,4.4,3.1s2.1,3,2.7,4.8c.6,1.9.9,3.9.9,6.1v3.3c0,1-.4,1.5-1.2,1.5h0ZM223,25.4c0-2.3-.6-4.1-1.7-5.4s-2.7-1.9-4.6-1.9-3.4.6-4.6,1.9c-1.2,1.2-1.8,3.1-1.8,5.4v.2h12.8v-.2h0Z"/>
    <path class="st0" d="M260.1,36.5c0,1.3-.2,2.5-.7,3.7-.5,1.1-1.2,2.1-2.2,2.9-1,.8-2.2,1.5-3.7,2-1.5.5-3.2.7-5.1.7s-1.3,0-2.2,0c-.9,0-1.8-.1-2.8-.2s-2-.2-3-.4c-1-.1-1.9-.3-2.7-.6-.8-.2-1.1-.7-1.1-1.4v-3.6c0-.2,0-.5.3-.7.2-.2.4-.3.7-.3h.2c.7,0,1.6.2,2.5.2s1.9.2,2.9.2c.9,0,1.9.1,2.7.2.8,0,1.5,0,1.9,0,.9,0,1.6,0,2.2-.2.6-.1,1-.3,1.3-.6.3-.3.5-.6.6-.9.1-.4.1-.7.1-1.1s-.2-1-.6-1.5c-.4-.4-1.1-1-2-1.5l-8.2-5c-1.5-.9-2.7-2.1-3.6-3.5-.9-1.4-1.4-3-1.4-4.7,0-5.9,3.8-8.9,11.3-8.9s2.3,0,3.2,0c1,0,1.9.1,2.7.3s1.6.2,2.4.4c.8.1,1.5.3,2.3.4.7.2,1.1.6,1.1,1.4v3.5c0,.8-.3,1.1-1,1.1h-.2c-.4,0-1-.2-1.8-.2-.8,0-1.6-.1-2.5-.2s-1.9-.1-2.8-.2-1.9,0-2.7,0c-1.4,0-2.5.2-3.1.6s-1,1-1,1.9.2.9.6,1.2,1,.8,1.8,1.2l7.8,4.8c1.3.8,2.3,1.5,3,2.3.7.8,1.3,1.5,1.7,2.3s.7,1.5.8,2.3c.1.8.2,1.5.2,2.3h0Z"/>
    <path class="st0" d="M284.3,45.4c-.7.1-1.4.2-2.1.3-.7,0-1.3.1-2,.1-1.7,0-3.1-.1-4.3-.4-1.2-.2-2.2-.7-2.9-1.4-.8-.7-1.3-1.7-1.7-2.9-.4-1.2-.5-2.8-.5-4.8v-18.7l-5.6-.8c-.3,0-.6-.2-.8-.4-.2-.2-.4-.5-.4-.8v-2.7c0-.3.1-.6.4-.8.2-.2.5-.4.8-.4h5.6v-4.9c0-.3.1-.6.4-.8.2-.2.5-.3.8-.4l5.5-.9h.2c.6,0,1,.3,1,.9v6.1h5.4c.3,0,.6.1.8.4.2.2.4.5.4.8v3.5c0,.3-.1.6-.4.8-.2.2-.5.4-.8.4h-5.4v18.7c0,.8,0,1.3,0,1.8,0,.4.1.8.3,1,.2.2.4.4.7.5.3,0,.7,0,1.2,0h3.2c.8,0,1.2.3,1.2.9v3.8c0,.6-.4,1-1.1,1.1h0Z"/>
    <path class="st0" d="M317.1,31.3h-19.5v.2c0,.9.1,1.8.3,2.7.2.9.6,1.7,1.1,2.4.5.7,1.3,1.3,2.2,1.8s2.1.7,3.5.7c2.2,0,4.2,0,6.2-.2,1.9-.1,3.5-.3,4.8-.4h.2c.3,0,.6,0,.8.2.2.1.3.4.3.7v3.9c0,.5,0,.8-.2,1.1-.1.2-.5.4-1,.5-1,.2-1.9.3-2.7.5s-1.7.2-2.5.3-1.8.1-2.8.2c-1,0-2.2,0-3.5,0s-3-.2-4.7-.7c-1.7-.5-3.2-1.2-4.7-2.4s-2.6-2.7-3.5-4.6c-1-1.9-1.4-4.4-1.4-7.3v-4.4c0-2.3.3-4.5,1-6.3.6-1.9,1.6-3.5,2.8-4.8,1.2-1.3,2.7-2.3,4.5-3,1.8-.7,3.8-1,6.1-1s4.3.4,6.1,1.1c1.8.7,3.2,1.8,4.4,3.1s2.1,3,2.7,4.8.9,3.9.9,6.1v3.3c0,1-.4,1.5-1.2,1.5h0ZM310.4,25.4c0-2.3-.6-4.1-1.7-5.4s-2.7-1.9-4.6-1.9-3.4.6-4.6,1.9-1.8,3.1-1.8,5.4v.2h12.8v-.2h0Z"/>
    <path class="st0" d="M341.9,17.6c-.2.2-.5.4-.8.4-1.6,0-3.1.2-4.4.6s-2.6.9-3.8,1.6v24c0,.3-.1.6-.4.9-.2.3-.5.4-.8.4h-5.5c-.3,0-.6-.1-.8-.4-.2-.3-.4-.5-.4-.9V12.9c0-.3.1-.6.4-.8.2-.2.5-.4.8-.4h5.2c.3,0,.6.1.8.4.2.2.4.5.4.8v1.2c1.5-1.1,3-1.9,4.5-2.3,1.5-.4,2.9-.6,4-.6s.6.1.8.4c.2.2.4.5.4.8v4.3c0,.3-.1.6-.4.8h0Z"/>
    <path class="st0" d="M369.9,36.5c0,1.3-.2,2.5-.7,3.7-.5,1.1-1.2,2.1-2.2,2.9-1,.8-2.2,1.5-3.7,2-1.5.5-3.2.7-5.1.7s-1.3,0-2.2,0-1.8-.1-2.8-.2-2-.2-3-.4c-1-.1-1.9-.3-2.7-.6-.8-.2-1.1-.7-1.1-1.4v-3.6c0-.2,0-.5.3-.7s.4-.3.7-.3h.2c.7,0,1.6.2,2.5.2s1.9.2,2.9.2c1,0,1.9.1,2.7.2s1.5,0,1.9,0c.9,0,1.6,0,2.2-.2.6-.1,1-.3,1.3-.6.3-.3.5-.6.6-.9.1-.4.1-.7.1-1.1s-.2-1-.6-1.5c-.4-.4-1.1-1-2-1.5l-8.2-5c-1.5-.9-2.7-2.1-3.6-3.5s-1.4-3-1.4-4.7c0-5.9,3.8-8.9,11.3-8.9s2.3,0,3.2,0c1,0,1.9.1,2.7.3s1.6.2,2.4.4,1.5.3,2.3.4c.7.2,1.1.6,1.1,1.4v3.5c0,.8-.3,1.1-1,1.1h-.2c-.4,0-1-.2-1.8-.2-.8,0-1.6-.1-2.5-.2s-1.9-.1-2.8-.2-1.9,0-2.7,0c-1.4,0-2.5.2-3.1.6s-1,1-1,1.9.2.9.6,1.2,1,.8,1.8,1.2l7.8,4.8c1.3.8,2.3,1.5,3,2.3.7.8,1.3,1.5,1.7,2.3s.7,1.5.8,2.3c.1.8.2,1.5.2,2.3h0Z"/>
  </g>
</svg>