<?xml version="1.0" encoding="UTF-8"?>
<svg id="Layer_1" xmlns="http://www.w3.org/2000/svg" version="1.1" viewBox="0 0 303.1 21.9">
  <!-- Generator: Adobe Illustrator 29.2.1, SVG Export Plug-In . SVG Version: 2.1.0 Build 116)  -->
  <defs>
    <style>
      .st0 {
        fill: #fff;
      }
    </style>
  </defs>
  <g id="samen">
    <path class="st0" d="M9.8,14.1c0,.5-.1,1-.3,1.4s-.5.8-.9,1.1c-.4.3-.9.6-1.5.8-.6.2-1.3.3-2.1.3s-.6,0-.9,0-.7,0-1.1,0c-.4,0-.8,0-1.2-.1-.4,0-.8-.1-1.1-.2-.3,0-.5-.2-.5-.5v-1.4c0,0,0-.2.1-.2,0,0,.2-.1.3-.1h.1c.3,0,.6,0,1,0s.8,0,1.2,0c.4,0,.8,0,1.1,0,.3,0,.6,0,.8,0,.4,0,.7,0,.9,0s.4-.1.5-.2c.1-.1.2-.2.2-.4,0-.1,0-.3,0-.4s0-.4-.2-.6c-.2-.2-.4-.4-.8-.6l-3.4-1.9c-.6-.4-1.1-.8-1.5-1.3S0,8.5,0,7.8C0,5.6,1.6,4.4,4.7,4.4s.9,0,1.3,0,.8,0,1.1,0c.3,0,.7,0,1,.2.3,0,.6.1.9.2.3,0,.4.2.4.5v1.3c0,.3-.1.4-.4.4h-.1c-.2,0-.4,0-.7,0-.3,0-.7,0-1,0-.4,0-.8,0-1.2,0s-.8,0-1.1,0c-.6,0-1,0-1.3.2-.3.1-.4.4-.4.7s0,.3.3.5c.2.1.4.3.7.4l3.2,1.8c.5.3.9.6,1.2.9s.5.6.7.9.3.6.3.9,0,.6,0,.9h0Z"/>
    <path class="st0" d="M22.6,17.3c-.1,0-.2.1-.3.1h-2.1c-.1,0-.2,0-.3-.1s-.1-.2-.1-.3v-.4c-.6.3-1.1.6-1.7.7-.6.2-1.2.3-1.8.3s-1,0-1.5-.2c-.5-.1-1-.3-1.4-.6s-.7-.7-1-1.2c-.2-.5-.4-1.1-.4-1.9h0c0-1.4.5-2.4,1.4-3,.9-.7,2.5-1,4.6-1h1.5v-1c0-.8-.2-1.2-.5-1.5-.4-.2-.9-.4-1.6-.4s-1.6,0-2.3,0-1.3,0-1.7.1h-.1c-.1,0-.2,0-.3,0s-.1-.2-.1-.3v-1.4c0-.2.2-.4.5-.5.5,0,1.1-.2,1.8-.2.7,0,1.5-.1,2.3-.1,1.8,0,3.1.4,4,1.1s1.4,1.8,1.4,3.3v8.2c0,.1,0,.2-.1.3h0ZM19.5,11.8h-1.6c-.6,0-1,0-1.4.1s-.6.2-.8.4-.4.4-.4.6c0,.2-.1.5-.1.8h0c0,.7.1,1,.4,1.2.3.2.7.3,1.4.3s.9,0,1.3-.2c.4-.1.8-.3,1.2-.4v-2.8h0Z"/>
    <path class="st0" d="M43.5,17.3c0,.1-.2.1-.3.1h-2.3c-.1,0-.2,0-.3-.1,0-.1-.2-.2-.2-.3v-7.7c0-.4,0-.8,0-1.1,0-.3-.2-.5-.3-.7-.1-.2-.3-.3-.5-.3-.2,0-.5,0-.9,0s-.6,0-1,.1c-.4,0-.9.2-1.3.4,0,.3,0,.5,0,.8,0,.3,0,.6,0,.8v7.7c0,.1,0,.2-.2.3,0,.1-.2.1-.3.1h-2.3c-.1,0-.2,0-.3-.1,0-.1-.2-.2-.2-.3v-7.7c0-.4,0-.8,0-1.1,0-.3-.1-.5-.3-.7s-.3-.3-.5-.3-.5,0-.9,0-1.2.2-2.3.8v9.2c0,.1,0,.2-.1.3s-.2.1-.3.1h-2.3c-.1,0-.2,0-.3-.1-.1-.1-.1-.2-.1-.3V5.1c0-.1,0-.2.1-.3s.2-.1.3-.1h2.1c.1,0,.2,0,.3.1.1,0,.1.2.1.3v.5c.5-.3,1.1-.6,1.6-.8.5-.2,1.2-.3,1.9-.3s1.3,0,1.8.3c.5.2.8.4,1.1.8.6-.3,1.2-.6,1.9-.8.6-.2,1.3-.3,2.2-.3s1.5.1,2,.4,1,.6,1.2,1c.3.4.5.9.6,1.5.1.6.2,1.2.2,1.9v7.7c0,.1,0,.2-.2.3h0Z"/>
    <path class="st0" d="M57.7,12.1h-8c0,.4,0,.7.1,1.1,0,.3.2.6.5.9.2.3.5.5.9.7s.9.3,1.5.3c.9,0,1.8,0,2.5,0,.8,0,1.5-.1,2-.1h0c.1,0,.2,0,.3,0,0,0,.1.1.1.3v1.5c0,.2,0,.3,0,.4s-.2.1-.4.2c-.4,0-.8.1-1.1.2-.3,0-.7,0-1,.1-.3,0-.7,0-1.2,0-.4,0-.9,0-1.5,0s-1.3,0-2-.3c-.7-.2-1.3-.5-1.9-.9-.6-.4-1.1-1-1.5-1.8-.4-.7-.6-1.7-.6-2.8v-1.7c0-.9.1-1.7.4-2.4s.6-1.3,1.1-1.8,1.1-.9,1.9-1.2c.7-.3,1.6-.4,2.5-.4s1.8.1,2.5.4,1.3.7,1.8,1.2c.5.5.9,1.1,1.1,1.8.2.7.4,1.5.4,2.3v1.3c0,.4-.2.6-.5.6h0ZM54.9,9.8c0-.9-.2-1.6-.7-2.1-.5-.5-1.1-.7-1.9-.7s-1.4.2-1.9.7c-.5.5-.7,1.2-.7,2.1h0c0,0,5.3,0,5.3,0h0Z"/>
    <path class="st0" d="M72.2,17.3c0,.1-.2.1-.3.1h-2.3c-.1,0-.2,0-.3-.1,0-.1-.2-.2-.2-.3v-7.4c0-.5,0-.9,0-1.2s-.1-.6-.3-.8-.3-.3-.6-.4-.7-.1-1.1-.1-.9,0-1.3.2c-.4.1-.9.3-1.5.6v9.1c0,.1,0,.2-.2.3s-.2.1-.3.1h-2.3c-.1,0-.2,0-.3-.1,0-.1-.2-.2-.2-.3V5.1c0-.1,0-.2.2-.3s.2-.1.3-.1h2.1c.1,0,.2,0,.3.1.1,0,.1.2.1.3v.5c.4-.2.7-.4,1-.5.3-.1.6-.2.9-.3s.6-.1,1-.2.7,0,1.1,0c.9,0,1.6.1,2.2.4.6.3,1,.6,1.3,1.1.3.4.5,1,.6,1.6.1.6.2,1.3.2,2v7.4c0,.1,0,.2-.2.3h0Z"/>
    <path class="st0" d="M92.9,17.3c0,.1-.2.1-.3.1h-2.3c-.1,0-.2,0-.3-.1,0-.1-.2-.2-.2-.3v-7.5c0-.5,0-.9,0-1.2,0-.3-.2-.6-.3-.8-.2-.2-.3-.3-.6-.4s-.6-.1-1-.1c-.8,0-1.8.3-2.8.8v9.2c0,.1,0,.2-.2.3s-.2.1-.3.1h-2.3c-.1,0-.2,0-.3-.1,0-.1-.2-.2-.2-.3V.6c0-.1,0-.2.2-.3s.2-.1.3-.1h2.3c.1,0,.2,0,.3.1,0,0,.2.2.2.3v4.7c.5-.3,1-.5,1.6-.6.6-.2,1.3-.2,2.2-.2s1.6.1,2.1.4,1,.6,1.3,1.1c.3.4.6,1,.7,1.6s.2,1.3.2,2v7.5c0,.1,0,.2-.2.3h0Z"/>
    <path class="st0" d="M106.3,17.3c0,0-.2.1-.3.1h-2.1c-.1,0-.2,0-.3-.1s-.2-.2-.2-.3v-.4c-.6.3-1.2.6-1.7.7-.6.2-1.2.3-1.8.3s-1,0-1.5-.2c-.5-.1-1-.3-1.4-.6s-.7-.7-1-1.2c-.2-.5-.4-1.1-.4-1.9h0c0-1.4.5-2.4,1.4-3s2.5-1,4.6-1h1.6v-1c0-.8-.2-1.2-.5-1.5-.3-.2-.9-.4-1.6-.4s-1.6,0-2.3,0-1.3,0-1.7.1h-.1c-.1,0-.2,0-.3,0s-.1-.2-.1-.3v-1.4c0-.2.2-.4.5-.5.5,0,1.1-.2,1.8-.2.7,0,1.5-.1,2.3-.1,1.8,0,3.1.4,4,1.1s1.4,1.8,1.4,3.3v8.2c0,.1,0,.2-.2.3h0ZM103.2,11.8h-1.6c-.6,0-1,0-1.4.1-.3,0-.6.2-.8.4s-.3.4-.4.6c0,.2-.1.5-.1.8h0c0,.7.1,1,.4,1.2.3.2.7.3,1.4.3s.9,0,1.3-.2c.4-.1.8-.3,1.2-.4v-2.8h0Z"/>
    <path class="st0" d="M116.7,6.9c0,0-.2.1-.3.1-.7,0-1.3,0-1.8.2-.5.1-1.1.3-1.6.6v9.1c0,.1,0,.2-.2.3s-.2.1-.3.1h-2.3c-.1,0-.2,0-.3-.1,0-.1-.2-.2-.2-.3V5.1c0-.1,0-.2.2-.3s.2-.1.3-.1h2.1c.1,0,.2,0,.3.1,0,0,.2.2.2.3v.5c.6-.4,1.2-.7,1.8-.9.6-.1,1.2-.2,1.7-.2s.2,0,.3.1c0,0,.2.2.2.3v1.6c0,.1,0,.2-.2.3h0Z"/>
    <path class="st0" d="M129.8,16.8c0,0-.3.2-.5.2-.8.2-1.6.3-2.5.4-.9.1-1.7.2-2.5.2-2,0-3.5-.5-4.4-1.5s-1.4-2.4-1.4-4.2v-1.8c0-1.8.5-3.2,1.4-4.2,1-1,2.4-1.5,4.4-1.5s.7,0,1.1,0c.4,0,.8,0,1.3.1V.6c0-.1,0-.2.2-.3s.2-.1.3-.1h2.3c.1,0,.2,0,.3.1s.1.2.1.3v15.8c0,.2,0,.3-.1.4h0ZM126.7,7.1c-.3,0-.8,0-1.2-.1s-.8,0-1.1,0c-.5,0-1,0-1.3.2-.3.2-.6.4-.8.7s-.3.6-.4,1c0,.4-.1.8-.1,1.3v1.7c0,.5,0,.9.1,1.3s.2.7.4,1,.5.5.8.7.8.2,1.3.2.9,0,1.3,0c.4,0,.8,0,1-.1v-7.9h0Z"/>
    <path class="st0" d="M136.3,17.3c0,.1-.2.1-.3.1h-2.3c-.1,0-.2,0-.3-.1-.1-.1-.1-.2-.1-.3V.6c0-.1,0-.2.1-.3s.2-.1.3-.1h2.3c.1,0,.2,0,.3.1s.1.2.1.3v16.4c0,.1,0,.2-.1.3Z"/>
    <path class="st0" d="M150.7,14.2c-.2.7-.6,1.3-1.1,1.8-.5.5-1.1.9-1.8,1.2s-1.6.4-2.5.4-1.8-.1-2.6-.4-1.3-.7-1.8-1.2-.9-1.1-1.1-1.8c-.2-.7-.4-1.4-.4-2.3v-1.8c0-.8.1-1.6.4-2.3.2-.7.6-1.3,1.1-1.8s1.1-.9,1.8-1.2,1.6-.4,2.6-.4,1.8.1,2.5.4c.7.3,1.3.7,1.8,1.2s.9,1.1,1.1,1.8c.2.7.4,1.4.4,2.3v1.8c0,.8-.1,1.6-.4,2.3ZM147.9,10.1c0-.9-.2-1.7-.7-2.2s-1.1-.8-2-.8-1.5.3-2,.8c-.4.6-.7,1.3-.7,2.2v1.8c0,.9.2,1.7.7,2.2s1.1.8,2,.8,1.5-.3,2-.8c.4-.6.7-1.3.7-2.2v-1.8Z"/>
    <path class="st0" d="M163.9,16.1c-1,1-2.4,1.5-4.4,1.5s-.6,0-1.1,0-.8,0-1.3-.1v4c0,.1,0,.2-.1.3-.1,0-.2.1-.3.1h-2.3c-.1,0-.2,0-.3-.1s-.1-.2-.1-.3V5.7c0-.2,0-.3.1-.4s.3-.2.5-.2c.8-.2,1.6-.3,2.5-.4.9-.1,1.7-.2,2.5-.2,2,0,3.5.5,4.4,1.5,1,1,1.4,2.4,1.4,4.2v1.8c0,1.8-.5,3.2-1.4,4.2h0ZM162.1,10.2c0-.5,0-.9-.1-1.3s-.2-.7-.4-1c-.2-.3-.5-.5-.8-.7s-.8-.2-1.3-.2-.9,0-1.3,0-.8,0-1,.1v7.9c.3,0,.8,0,1.2.1s.9,0,1.1,0c.5,0,1,0,1.3-.2s.6-.4.8-.7.3-.6.4-1c0-.4.1-.8.1-1.3v-1.7h0Z"/>
    <path class="st0" d="M178.9,12.1h-8c0,.4,0,.7.1,1.1,0,.3.2.6.5.9.2.3.5.5.9.7.4.2.9.3,1.4.3.9,0,1.8,0,2.5,0,.8,0,1.4-.1,2-.1h0c.1,0,.2,0,.3,0s.1.1.1.3v1.5c0,.2,0,.3,0,.4s-.2.1-.4.2c-.4,0-.8.1-1.1.2-.3,0-.7,0-1,.1-.4,0-.7,0-1.2,0-.4,0-.9,0-1.5,0s-1.3,0-1.9-.3c-.7-.2-1.3-.5-1.9-.9-.6-.4-1.1-1-1.5-1.8-.4-.7-.6-1.7-.6-2.8v-1.7c0-.9.1-1.7.4-2.4s.6-1.3,1.1-1.8,1.1-.9,1.9-1.2c.7-.3,1.6-.4,2.5-.4s1.8.1,2.5.4c.7.3,1.3.7,1.8,1.2.5.5.9,1.1,1.1,1.8.2.7.4,1.5.4,2.3v1.3c0,.4-.2.6-.5.6h0ZM176.2,9.8c0-.9-.2-1.6-.7-2.1-.5-.5-1.1-.7-1.9-.7s-1.4.2-1.9.7c-.5.5-.7,1.2-.7,2.1h0c0,0,5.3,0,5.3,0h0q0,0,0,0Z"/>
    <path class="st0" d="M193.4,17.3c-.1.1-.2.1-.3.1h-2.3c-.1,0-.2,0-.3-.1-.1-.1-.1-.2-.1-.3v-7.4c0-.5,0-.9,0-1.2s-.1-.6-.3-.8-.4-.3-.6-.4-.7-.1-1.1-.1-.9,0-1.3.2c-.4.1-.9.3-1.5.6v9.1c0,.1,0,.2-.1.3-.1.1-.2.1-.3.1h-2.3c-.1,0-.2,0-.3-.1-.1-.1-.1-.2-.1-.3V5.1c0-.1,0-.2.1-.3s.2-.1.3-.1h2.1c.1,0,.2,0,.3.1.1,0,.1.2.1.3v.5c.4-.2.7-.4,1-.5.3-.1.6-.2.9-.3s.6-.1,1-.2.7,0,1.1,0c.9,0,1.6.1,2.2.4.6.3,1,.6,1.3,1.1.3.4.5,1,.6,1.6.1.6.2,1.3.2,2v7.4c0,.1,0,.2-.1.3h0Z"/>
    <path class="st0" d="M206.1,2.8c-.1,0-.2.1-.3.1h-2.4c-.1,0-.2,0-.4-.1-.1,0-.2-.2-.2-.3V.4c0-.1,0-.2.2-.3.1,0,.2-.1.4-.1h2.4c.1,0,.2,0,.3.1,0,0,.1.2.1.3v2c0,.1,0,.2-.1.3ZM206.1,17.3c-.1.1-.2.1-.3.1h-2.3c-.1,0-.2,0-.3-.1-.1-.1-.1-.2-.1-.3V5.1c0-.1,0-.2.1-.3s.2-.1.3-.1h2.3c.1,0,.2,0,.3.1s.1.2.1.3v11.9c0,.1,0,.2-.1.3h0Z"/>
    <path class="st0" d="M218.8,14.1c0,.5-.1,1-.3,1.4-.2.4-.5.8-.9,1.1-.4.3-.9.6-1.5.8-.6.2-1.3.3-2.1.3s-.6,0-.9,0c-.4,0-.7,0-1.1,0-.4,0-.8,0-1.2-.1-.4,0-.8-.1-1.1-.2-.3,0-.5-.2-.5-.5v-1.4c0,0,0-.2.1-.2,0,0,.2-.1.3-.1h.1c.3,0,.6,0,1.1,0,.4,0,.8,0,1.2,0s.8,0,1.1,0c.3,0,.6,0,.8,0,.4,0,.7,0,.9,0,.2,0,.4-.1.5-.2.1-.1.2-.2.2-.4,0-.1,0-.3,0-.4s0-.4-.2-.6c-.2-.2-.4-.4-.8-.6l-3.4-1.9c-.6-.4-1.1-.8-1.5-1.3s-.6-1.1-.6-1.8c0-2.3,1.6-3.4,4.7-3.4s.9,0,1.3,0,.8,0,1.1,0,.7,0,1,.2.6.1.9.2c.3,0,.4.2.4.5v1.3c0,.3-.1.4-.4.4h-.1c-.2,0-.4,0-.7,0-.3,0-.7,0-1,0-.4,0-.8,0-1.2,0s-.8,0-1.1,0c-.6,0-1,0-1.3.2-.3.1-.4.4-.4.7s0,.3.3.5c.2.1.4.3.7.4l3.2,1.8c.5.3.9.6,1.2.9s.5.6.7.9c.2.3.3.6.3.9s0,.6,0,.9h0Z"/>
    <path class="st0" d="M230.9,17.3c0,.1-.2.1-.3.1h-2.3c-.1,0-.2,0-.3-.1-.1-.1-.1-.2-.1-.3V.6c0-.1,0-.2.1-.3s.2-.1.3-.1h2.3c.1,0,.2,0,.3.1s.1.2.1.3v16.4c0,.1,0,.2-.1.3Z"/>
    <path class="st0" d="M245.2,12.1h-8c0,.4,0,.7.1,1.1,0,.3.2.6.5.9.2.3.5.5.9.7.4.2.9.3,1.4.3.9,0,1.8,0,2.5,0,.8,0,1.4-.1,2-.1h0c.1,0,.2,0,.3,0s.1.1.1.3v1.5c0,.2,0,.3,0,.4s-.2.1-.4.2c-.4,0-.8.1-1.1.2-.3,0-.7,0-1,.1-.4,0-.7,0-1.2,0-.4,0-.9,0-1.5,0s-1.3,0-1.9-.3c-.7-.2-1.3-.5-1.9-.9-.6-.4-1.1-1-1.5-1.8-.4-.7-.6-1.7-.6-2.8v-1.7c0-.9.1-1.7.4-2.4s.6-1.3,1.1-1.8,1.1-.9,1.9-1.2c.7-.3,1.6-.4,2.5-.4s1.8.1,2.5.4c.7.3,1.3.7,1.8,1.2.5.5.9,1.1,1.1,1.8.2.7.4,1.5.4,2.3v1.3c0,.4-.2.6-.5.6h0ZM242.4,9.8c0-.9-.2-1.6-.7-2.1-.5-.5-1.1-.7-1.9-.7s-1.4.2-1.9.7c-.5.5-.7,1.2-.7,2.1h0c0,0,5.3,0,5.3,0h0q0,0,0,0Z"/>
    <path class="st0" d="M259.7,17.3c-.1,0-.2.1-.3.1h-2.3c-.1,0-.2,0-.3-.1-.1,0-.1-.2-.1-.3v-.5c-.6.4-1.2.7-1.8.9s-1.2.3-2,.3-1.2,0-1.7-.2-.9-.4-1.3-.7c-.5-.4-.8-1-1-1.7-.2-.7-.3-1.5-.3-2.5v-7.4c0-.1,0-.2.1-.3.1,0,.2-.2.3-.2h2.3c.1,0,.2,0,.3.2.1,0,.1.2.1.3v7.4c0,.6,0,1,.1,1.4s.2.6.4.8c.2.1.4.2.6.3.2,0,.5.1.9.1s.5,0,.7,0c.2,0,.5-.1.8-.2.2,0,.5-.2.7-.3.2-.1.4-.2.6-.3V5.1c0-.1,0-.2.1-.3s.2-.2.3-.2h2.3c.1,0,.2,0,.3.2.1,0,.1.2.1.3v11.9c0,.1,0,.2-.1.3h0Z"/>
    <path class="st0" d="M274.2,17.2c0,0,0,.1-.1.2,0,0-.1,0-.2,0h-3c-.1,0-.3,0-.4-.1s-.2-.2-.3-.3l-3.9-5.2v5.2c0,.1,0,.2-.1.3s-.2.1-.3.1h-2.3c-.1,0-.2,0-.3-.1-.1-.1-.1-.2-.1-.3V.6c0-.1,0-.2.1-.3s.2-.1.3-.1h2.3c.1,0,.2,0,.3.1.1,0,.1.2.1.3v9.5l4.2-5.2c0-.1.2-.2.3-.2.1,0,.2,0,.3,0h2.8c.2,0,.4,0,.4.2s0,.2-.1.2l-4.9,5.6,5,6.3c0,0,0,.1,0,.2h0Z"/>
    <path class="st0" d="M287.4,12.1h-8c0,.4,0,.7.1,1.1,0,.3.2.6.5.9.2.3.5.5.9.7s.9.3,1.5.3c.9,0,1.8,0,2.5,0,.8,0,1.5-.1,2-.1h0c.1,0,.2,0,.3,0,0,0,.1.1.1.3v1.5c0,.2,0,.3,0,.4s-.2.1-.4.2c-.4,0-.8.1-1.1.2-.3,0-.7,0-1,.1s-.7,0-1.2,0c-.4,0-.9,0-1.5,0s-1.3,0-2-.3c-.7-.2-1.3-.5-1.9-.9-.6-.4-1.1-1-1.5-1.8-.4-.7-.6-1.7-.6-2.8v-1.7c0-.9.1-1.7.4-2.4s.6-1.3,1.1-1.8,1.1-.9,1.9-1.2c.7-.3,1.6-.4,2.5-.4s1.8.1,2.5.4c.7.3,1.3.7,1.8,1.2.5.5.9,1.1,1.1,1.8.2.7.4,1.5.4,2.3v1.3c0,.4-.2.6-.5.6h0ZM284.6,9.8c0-.9-.2-1.6-.7-2.1-.5-.5-1.1-.7-1.9-.7s-1.4.2-1.9.7c-.5.5-.7,1.2-.7,2.1h0c0,0,5.3,0,5.3,0h0Z"/>
    <path class="st0" d="M297.6,6.9c-.1,0-.2.1-.3.1-.7,0-1.3,0-1.8.2-.5.1-1.1.3-1.6.6v9.1c0,.1,0,.2-.1.3s-.2.1-.3.1h-2.3c-.1,0-.2,0-.3-.1-.1-.1-.1-.2-.1-.3V5.1c0-.1,0-.2.1-.3s.2-.1.3-.1h2.1c.1,0,.2,0,.3.1.1,0,.1.2.1.3v.5c.6-.4,1.2-.7,1.8-.9s1.2-.2,1.7-.2.2,0,.3.1c.1,0,.1.2.1.3v1.6c0,.1,0,.2-.1.3h0Z"/>
    <path class="st0" d="M302.7,12.1c0,.1,0,.2-.1.3s-.2.1-.3.1h-1.6c-.1,0-.2,0-.4-.1s-.2-.2-.2-.3l-.4-11.5c0-.1,0-.2.2-.3.1,0,.2-.1.4-.1h2.3c.1,0,.2,0,.3.1.1,0,.1.2.1.3l-.4,11.5ZM302.8,17.4c0,0-.2.1-.3.1h-2.2c-.1,0-.2,0-.3-.1s-.1-.2-.1-.3v-2.6c0-.3.2-.4.5-.4h2.2c.3,0,.5.1.5.4v2.6c0,.1,0,.2-.1.3Z"/>
  </g>
</svg>